<svg xmlns="http://www.w3.org/2000/svg" viewBox="0 0 1440 320"><path fill="#a6875c" fill-opacity="1" d="M0,256L6.9,240C13.7,224,27,192,41,165.3C54.9,139,69,117,82,106.7C96,96,110,96,123,106.7C137.1,117,151,139,165,165.3C178.3,192,192,224,206,250.7C219.4,277,233,299,247,288C260.6,277,274,235,288,224C301.7,213,315,235,329,224C342.9,213,357,171,370,138.7C384,107,398,85,411,106.7C425.1,128,439,192,453,229.3C466.3,267,480,277,494,240C507.4,203,521,117,535,80C548.6,43,562,53,576,96C589.7,139,603,213,617,218.7C630.9,224,645,160,658,133.3C672,107,686,117,699,149.3C713.1,181,727,235,741,213.3C754.3,192,768,96,782,80C795.4,64,809,128,823,165.3C836.6,203,850,213,864,202.7C877.7,192,891,160,905,160C918.9,160,933,192,946,170.7C960,149,974,75,987,90.7C1001.1,107,1015,213,1029,256C1042.3,299,1056,277,1070,250.7C1083.4,224,1097,192,1111,186.7C1124.6,181,1138,203,1152,176C1165.7,149,1179,75,1193,74.7C1206.9,75,1221,149,1234,165.3C1248,181,1262,139,1275,101.3C1289.1,64,1303,32,1317,42.7C1330.3,53,1344,107,1358,106.7C1371.4,107,1385,53,1399,69.3C1412.6,85,1426,171,1433,213.3L1440,256L1440,0L1433.1,0C1426.3,0,1413,0,1399,0C1385.1,0,1371,0,1358,0C1344,0,1330,0,1317,0C1302.9,0,1289,0,1275,0C1261.7,0,1248,0,1234,0C1220.6,0,1207,0,1193,0C1179.4,0,1166,0,1152,0C1138.3,0,1125,0,1111,0C1097.1,0,1083,0,1070,0C1056,0,1042,0,1029,0C1014.9,0,1001,0,987,0C973.7,0,960,0,946,0C932.6,0,919,0,905,0C891.4,0,878,0,864,0C850.3,0,837,0,823,0C809.1,0,795,0,782,0C768,0,754,0,741,0C726.9,0,713,0,699,0C685.7,0,672,0,658,0C644.6,0,631,0,617,0C603.4,0,590,0,576,0C562.3,0,549,0,535,0C521.1,0,507,0,494,0C480,0,466,0,453,0C438.9,0,425,0,411,0C397.7,0,384,0,370,0C356.6,0,343,0,329,0C315.4,0,302,0,288,0C274.3,0,261,0,247,0C233.1,0,219,0,206,0C192,0,178,0,165,0C150.9,0,137,0,123,0C109.7,0,96,0,82,0C68.6,0,55,0,41,0C27.4,0,14,0,7,0L0,0Z"></path></svg>